<svg xmlns="http://www.w3.org/2000/svg" width="38.072" height="29" viewBox="0 0 38.072 29">
  <defs>
    <style>
      .cls-1 {
        fill: #fff;
      }
    </style>
  </defs>
  <g id="mail" transform="translate(0 -61)">
    <g id="Group_47" data-name="Group 47" transform="translate(0 61)">
      <path id="Path_36" data-name="Path 36" class="cls-1" d="M34.726,61H3.346A3.352,3.352,0,0,0,0,64.346V86.654A3.352,3.352,0,0,0,3.346,90H34.726a3.352,3.352,0,0,0,3.346-3.346V64.346A3.352,3.352,0,0,0,34.726,61Zm-.462,2.231L19.107,78.388,3.819,63.231ZM2.231,86.192V64.8L12.974,75.449Zm1.577,1.577,10.75-10.75,3.767,3.734a1.115,1.115,0,0,0,1.574,0l3.673-3.673L34.264,87.769Zm32.033-1.577L25.149,75.5,35.841,64.808Z" transform="translate(0 -61)"/>
    </g>
  </g>
</svg>
