<?xml version="1.0" encoding="utf-8"?>
<!-- Generator: Adobe Illustrator 24.0.0, SVG Export Plug-In . SVG Version: 6.00 Build 0)  -->
<svg version="1.1" id="Calque_1" xmlns="http://www.w3.org/2000/svg" xmlns:xlink="http://www.w3.org/1999/xlink" x="0px" y="0px"
	 viewBox="0 0 50 139.5" style="enable-background:new 0 0 50 139.5;" xml:space="preserve">
<style type="text/css">
	.st0{fill:#FAFAFA;}
</style>
<title>Fichier 9</title>
<g id="Calque_2_1_">
	<g id="Calque_1-2">
		<path class="st0" d="M22.4,109.1c4.5-0.1,8.7,1.3,11.8,3.9c3.1,2.6,4.6,6.2,4.3,10c-0.1,3.8-2.2,7.4-5.5,10
			c-3.4,2.7-7.8,4.2-12.2,4.1c-4.4,0.1-8.6-1.3-11.6-3.9c-3.1-2.6-4.6-6.2-4.3-10c0.1-3.8,2.2-7.4,5.5-10
			C13.7,110.5,18,109,22.4,109.1z M11.9,90.4l1.7-87.7l27.6-0.3l-6.2,97L11.9,90.4z"/>
	</g>
</g>
</svg>
