<svg id="talk" xmlns="http://www.w3.org/2000/svg" width="176.791" height="155.031" viewBox="0 0 137.176 137.176">
  <defs>
    <style>
      .cls-1 {
        fill: #31da80;
      }
    </style>
  </defs>
  <path id="Tracé_17" data-name="Tracé 17" class="cls-1" d="M122.819,325.768a13.471,13.471,0,0,0,3.246-8.781v-1.448a13.538,13.538,0,0,0-27.077,0v1.448a13.471,13.471,0,0,0,3.246,8.781,19.192,19.192,0,0,0-11.678,8.773,19.192,19.192,0,0,0-11.678-8.773,13.471,13.471,0,0,0,3.246-8.781v-1.448a13.538,13.538,0,0,0-27.077,0v1.448a13.471,13.471,0,0,0,3.246,8.781,19.192,19.192,0,0,0-11.678,8.773,19.192,19.192,0,0,0-11.678-8.773,13.471,13.471,0,0,0,3.246-8.781v-1.448a13.538,13.538,0,0,0-27.077,0v1.448a13.471,13.471,0,0,0,3.246,8.781A19.154,19.154,0,0,0,0,344.287v11.3a2.679,2.679,0,0,0,2.679,2.679H134.5a2.679,2.679,0,0,0,2.679-2.679v-11.3A19.154,19.154,0,0,0,122.819,325.768Zm-18.472-10.229a8.18,8.18,0,0,1,16.36,0v1.448a8.18,8.18,0,1,1-16.36,0Zm-43.939,0a8.18,8.18,0,0,1,16.36,0v1.448a8.18,8.18,0,1,1-16.36,0Zm-43.939,0a8.18,8.18,0,0,1,16.36,0v1.448a8.18,8.18,0,1,1-16.36,0ZM5.358,344.287A13.777,13.777,0,0,1,19.12,330.525H30.178a13.777,13.777,0,0,1,13.761,13.761v8.618H5.358Zm43.939,0a13.777,13.777,0,0,1,13.761-13.761H74.117a13.777,13.777,0,0,1,13.761,13.761v8.618H49.3Zm82.52,8.618H93.237v-8.618A13.777,13.777,0,0,1,107,330.525h11.058a13.777,13.777,0,0,1,13.761,13.761Zm0,0" transform="translate(0 -221.087)"/>
  <path id="Tracé_18" data-name="Tracé 18" class="cls-1" d="M40.487,53.741l-.024,14.876a2.678,2.678,0,0,0,4.376,2.077L59.973,58.308H76.716l9.578,11.986a2.679,2.679,0,0,0,4.268-.108L99.1,58.307h17.738l15.065,12.385a2.68,2.68,0,0,0,4.381-2.07V53.7A29.155,29.155,0,0,0,120.555,0h-64.4A29.154,29.154,0,0,0,40.487,53.741ZM56.153,5.358h64.4a23.8,23.8,0,0,1,11.732,44.5,2.677,2.677,0,0,0-1.356,2.329V62.951L119.5,53.558a2.675,2.675,0,0,0-1.7-.61H97.732a2.679,2.679,0,0,0-2.175,1.116L88.276,64.188,80.1,53.955a2.68,2.68,0,0,0-2.093-1.007H59.017a2.685,2.685,0,0,0-1.7.606l-11.488,9.4.017-10.726a2.676,2.676,0,0,0-1.363-2.338A23.8,23.8,0,0,1,56.153,5.358Zm0,0" transform="translate(-19.766)"/>
  <path id="Tracé_19" data-name="Tracé 19" class="cls-1" d="M368.867,45.358h.1a2.679,2.679,0,0,0,.01-5.358h-.111a2.679,2.679,0,0,0,0,5.358Zm0,0" transform="translate(-268.078 -29.283)"/>
  <path id="Tracé_20" data-name="Tracé 20" class="cls-1" d="M405.745,59.207a13.056,13.056,0,0,1,.5,19.249,2.679,2.679,0,1,0,3.725,3.851,18.414,18.414,0,0,0-.695-27.137,2.679,2.679,0,0,0-3.525,4.037Zm0,0" transform="translate(-296.366 -39.905)"/>
  <path id="Tracé_21" data-name="Tracé 21" class="cls-1" d="M205.287,78.125a64.626,64.626,0,0,0,6.763,5.425,2.679,2.679,0,0,0,3.013,0,64.627,64.627,0,0,0,6.763-5.425c4.92-4.55,7.31-8.44,7.31-11.887,0-5.985-4.554-10.855-10.152-10.855a9.7,9.7,0,0,0-5.428,1.683,9.709,9.709,0,0,0-5.429-1.683c-5.6,0-10.152,4.869-10.152,10.855C197.977,69.685,200.367,73.573,205.287,78.125Zm2.841-17.384a4.477,4.477,0,0,1,3.4,1.631,2.68,2.68,0,0,0,4.053,0,4.477,4.477,0,0,1,3.4-1.631c2.644,0,4.793,2.466,4.793,5.5,0,3-5.646,8.4-10.223,11.807-4.577-3.4-10.221-8.8-10.221-11.807C203.335,63.207,205.485,60.741,208.128,60.741Zm0,0" transform="translate(-144.934 -40.545)"/>
</svg>
