<svg id="purchase" xmlns="http://www.w3.org/2000/svg" width="159.539" height="159.539" viewBox="0 0 159.539 159.539">
  <defs>
    <style>
      .cls-1 {
        fill: #31da80;
      }
    </style>
  </defs>
  <path id="Tracé_22" data-name="Tracé 22" class="cls-1" d="M47.254,36.848a10.572,10.572,0,0,1,.466-2.272,13.545,13.545,0,0,0,1.743-3.305,10.788,10.788,0,0,1,8.494-4.161h8.725a10.686,10.686,0,0,1,4.184.843,2.337,2.337,0,1,0,1.821-4.3q-.466-.2-.941-.362a13.555,13.555,0,1,0-18.845.007,15.527,15.527,0,0,0-2.8,1.3,13.554,13.554,0,1,0-22.818,11.82,15.355,15.355,0,0,0-1.794.753A13.55,13.55,0,0,0,10.363,59.193,15.452,15.452,0,0,0,0,73.764V84.359a9.827,9.827,0,0,0,9.815,9.815H16.1a2.337,2.337,0,1,0,0-4.674H9.815a5.147,5.147,0,0,1-5.141-5.141V73.764a10.762,10.762,0,0,1,10.75-10.75h8.725A10.762,10.762,0,0,1,34.9,73.764V84.359A5.147,5.147,0,0,1,29.758,89.5H26.191a2.337,2.337,0,0,0,0,4.674h3.566a9.827,9.827,0,0,0,9.815-9.815V73.764a15.486,15.486,0,0,0-.182-2.371h7.29A9.827,9.827,0,0,0,56.5,61.578V58.269H72.291a9.827,9.827,0,0,0,9.815-9.815V37.859a15.34,15.34,0,0,0-1.179-5.926,2.337,2.337,0,0,0-4.315,1.8,10.687,10.687,0,0,1,.821,4.13V48.454a5.147,5.147,0,0,1-5.141,5.141H56.5V50.984a16.842,16.842,0,0,0-9.242-14.136ZM62.32,4.674a8.881,8.881,0,1,1-8.881,8.881A8.891,8.891,0,0,1,62.32,4.674ZM36.709,17.8A8.883,8.883,0,0,1,45.25,29.115a15.193,15.193,0,0,0-1.691,3.21A8.879,8.879,0,1,1,36.709,17.8ZM19.787,40.579a8.881,8.881,0,1,1-8.881,8.881A8.891,8.891,0,0,1,19.787,40.579Zm32.035,21a5.147,5.147,0,0,1-5.141,5.141H37.868a15.509,15.509,0,0,0-8.658-7.526A13.531,13.531,0,0,0,29.951,40.5a10.786,10.786,0,0,1,2.4-.269h8.725a10.741,10.741,0,0,1,10.75,10.75Z"/>
  <path id="Tracé_23" data-name="Tracé 23" class="cls-1" d="M298.808,265a33.808,33.808,0,1,0,33.808,33.808A33.847,33.847,0,0,0,298.808,265Zm0,62.943a29.134,29.134,0,1,1,29.134-29.134A29.168,29.168,0,0,1,298.808,327.943Z" transform="translate(-182.426 -182.426)"/>
  <path id="Tracé_24" data-name="Tracé 24" class="cls-1" d="M313.126,252.861a2.337,2.337,0,1,0-3.785,2.742,38.5,38.5,0,1,1-6.392-6.88,2.337,2.337,0,1,0,3.013-3.573,43.125,43.125,0,1,0,7.164,7.71Z" transform="translate(-161.774 -161.774)"/>
  <path id="Tracé_25" data-name="Tracé 25" class="cls-1" d="M358.319,312.661v-3.267a2.337,2.337,0,1,0-4.674,0v3.267a7.646,7.646,0,0,0-6.429,7.539v2.263a7.643,7.643,0,0,0,7.634,7.634h4.368a.856.856,0,0,1,.856.855v4.368a2.964,2.964,0,0,1-2.96,2.96H354.85a2.964,2.964,0,0,1-2.96-2.96V334.19a2.337,2.337,0,1,0-4.674,0v1.132a7.647,7.647,0,0,0,6.429,7.539v3.267a2.337,2.337,0,1,0,4.674,0v-3.267a7.646,7.646,0,0,0,6.429-7.539v-4.368a5.535,5.535,0,0,0-5.53-5.529H354.85a2.964,2.964,0,0,1-2.96-2.96V320.2a2.964,2.964,0,0,1,2.96-2.96h2.263a2.964,2.964,0,0,1,2.96,2.96v1.132a2.337,2.337,0,1,0,4.674,0V320.2A7.646,7.646,0,0,0,358.319,312.661Z" transform="translate(-239.024 -211.378)"/>
  <path id="Tracé_26" data-name="Tracé 26" class="cls-1" d="M34.94,4.674a25.887,25.887,0,0,0-25.6,22.25L11.135,25.6a2.337,2.337,0,1,1,2.777,3.759L8.144,33.619a2.336,2.336,0,0,1-3.289-.52L.437,26.926a2.337,2.337,0,1,1,3.8-2.72l.658.92A30.572,30.572,0,0,1,34.939,0a2.337,2.337,0,0,1,0,4.674Z" transform="translate(136.446 20.934) rotate(90)"/>
  <path id="Tracé_27" data-name="Tracé 27" class="cls-1" d="M92.485,360.407a2.337,2.337,0,0,0-3.76,2.777l1.325,1.793a25.887,25.887,0,0,1-22.25-25.6,2.337,2.337,0,0,0-4.674,0,30.571,30.571,0,0,0,25.125,30.043l-.92.658a2.337,2.337,0,1,0,2.72,3.8l6.174-4.418a2.338,2.338,0,0,0,.52-3.289Z" transform="translate(-43.456 -232.021)"/>
</svg>
