<svg id="calendar" xmlns="http://www.w3.org/2000/svg" width="133.467" height="133.467" viewBox="0 0 133.467 133.467">
  <defs>
    <style>
      .cls-1 {
        fill: #31da80;
      }
    </style>
  </defs>
  <g id="Groupe_13" data-name="Groupe 13">
    <g id="Groupe_12" data-name="Groupe 12">
      <path id="Tracé_33" data-name="Tracé 33" class="cls-1" d="M117.826,10.427H111.57V0H101.143V10.427H32.324V0H21.9V10.427H15.641A15.658,15.658,0,0,0,0,26.068v91.759a15.658,15.658,0,0,0,15.641,15.641H117.826a15.658,15.658,0,0,0,15.641-15.641V26.068A15.658,15.658,0,0,0,117.826,10.427Zm5.214,107.4a5.219,5.219,0,0,1-5.214,5.214H15.641a5.219,5.219,0,0,1-5.214-5.214V49.007H123.04Zm0-79.246H10.427V26.068a5.219,5.219,0,0,1,5.214-5.214H21.9V31.281H32.324V20.854h68.819V31.281H111.57V20.854h6.256a5.219,5.219,0,0,1,5.214,5.214Z"/>
    </g>
  </g>
  <g id="Groupe_15" data-name="Groupe 15" transform="translate(19.5 60.203)">
    <g id="Groupe_14" data-name="Groupe 14" transform="translate(0 0)">
      <rect id="Rectangle_6" data-name="Rectangle 6" class="cls-1" width="11" height="10" transform="translate(-0.359 -0.062)"/>
    </g>
  </g>
  <g id="Groupe_17" data-name="Groupe 17" transform="translate(40.791 60.203)">
    <g id="Groupe_16" data-name="Groupe 16" transform="translate(0 0)">
      <rect id="Rectangle_7" data-name="Rectangle 7" class="cls-1" width="10" height="10" transform="translate(0.35 -0.062)"/>
    </g>
  </g>
  <g id="Groupe_19" data-name="Groupe 19" transform="translate(61.455 60.203)">
    <g id="Groupe_18" data-name="Groupe 18" transform="translate(0 0)">
      <rect id="Rectangle_8" data-name="Rectangle 8" class="cls-1" width="11" height="10" transform="translate(-0.314 -0.062)"/>
    </g>
  </g>
  <g id="Groupe_21" data-name="Groupe 21" transform="translate(82.119 60.203)">
    <g id="Groupe_20" data-name="Groupe 20" transform="translate(0 0)">
      <rect id="Rectangle_9" data-name="Rectangle 9" class="cls-1" width="11" height="10" transform="translate(0.021 -0.062)"/>
    </g>
  </g>
  <g id="Groupe_23" data-name="Groupe 23" transform="translate(103.41 60.203)">
    <g id="Groupe_22" data-name="Groupe 22" transform="translate(0 0)">
      <rect id="Rectangle_10" data-name="Rectangle 10" class="cls-1" width="10" height="10" transform="translate(-0.269 -0.062)"/>
    </g>
  </g>
  <g id="Groupe_25" data-name="Groupe 25" transform="translate(19.5 80.867)">
    <g id="Groupe_24" data-name="Groupe 24" transform="translate(0 0)">
      <rect id="Rectangle_11" data-name="Rectangle 11" class="cls-1" width="11" height="10" transform="translate(-0.359 0.274)"/>
    </g>
  </g>
  <g id="Groupe_27" data-name="Groupe 27" transform="translate(40.791 80.867)">
    <g id="Groupe_26" data-name="Groupe 26" transform="translate(0 0)">
      <rect id="Rectangle_12" data-name="Rectangle 12" class="cls-1" width="10" height="10" transform="translate(0.35 0.274)"/>
    </g>
  </g>
  <g id="Groupe_29" data-name="Groupe 29" transform="translate(61.455 80.867)">
    <g id="Groupe_28" data-name="Groupe 28" transform="translate(0 0)">
      <rect id="Rectangle_13" data-name="Rectangle 13" class="cls-1" width="11" height="10" transform="translate(-0.314 0.274)"/>
    </g>
  </g>
  <g id="Groupe_31" data-name="Groupe 31" transform="translate(82.119 80.867)">
    <g id="Groupe_30" data-name="Groupe 30" transform="translate(0 0)">
      <rect id="Rectangle_14" data-name="Rectangle 14" class="cls-1" width="11" height="10" transform="translate(0.021 0.274)"/>
    </g>
  </g>
  <g id="Groupe_33" data-name="Groupe 33" transform="translate(19.5 101.531)">
    <g id="Groupe_32" data-name="Groupe 32" transform="translate(0 0)">
      <rect id="Rectangle_15" data-name="Rectangle 15" class="cls-1" width="11" height="11" transform="translate(-0.359 -0.391)"/>
    </g>
  </g>
  <g id="Groupe_35" data-name="Groupe 35" transform="translate(40.791 101.531)">
    <g id="Groupe_34" data-name="Groupe 34" transform="translate(0 0)">
      <rect id="Rectangle_16" data-name="Rectangle 16" class="cls-1" width="10" height="11" transform="translate(0.35 -0.391)"/>
    </g>
  </g>
  <g id="Groupe_37" data-name="Groupe 37" transform="translate(61.455 101.531)">
    <g id="Groupe_36" data-name="Groupe 36" transform="translate(0 0)">
      <rect id="Rectangle_17" data-name="Rectangle 17" class="cls-1" width="11" height="11" transform="translate(-0.314 -0.391)"/>
    </g>
  </g>
  <g id="Groupe_39" data-name="Groupe 39" transform="translate(82.119 101.531)">
    <g id="Groupe_38" data-name="Groupe 38" transform="translate(0 0)">
      <rect id="Rectangle_18" data-name="Rectangle 18" class="cls-1" width="11" height="11" transform="translate(0.021 -0.391)"/>
    </g>
  </g>
  <g id="Groupe_41" data-name="Groupe 41" transform="translate(103.41 80.867)">
    <g id="Groupe_40" data-name="Groupe 40" transform="translate(0 0)">
      <rect id="Rectangle_19" data-name="Rectangle 19" class="cls-1" width="10" height="10" transform="translate(-0.269 0.274)"/>
    </g>
  </g>
</svg>
