<svg xmlns="http://www.w3.org/2000/svg" width="176.791" height="155.031" viewBox="0 0 176.791 155.031">
  <defs>
    <style>
      .cls-1 {
        fill: #31da80;
        fill-rule: evenodd;
      }
    </style>
  </defs>
  <path id="buy" class="cls-1" d="M16.714,80.034a3.459,3.459,0,0,1-5.151-.455L.805,66.759a3.455,3.455,0,1,1,5.3-4.434l5.281,6.294A77.527,77.527,0,0,1,164.1,60.846a3.458,3.458,0,0,1-6.76,1.461,70.6,70.6,0,0,0-139.119,7.44L25.1,63.98a3.455,3.455,0,0,1,4.434,5.3ZM63.806,70.4,60.047,58.894H78.035a3.461,3.461,0,0,0,0-6.922H57.787L54.313,41.338a3.454,3.454,0,0,0-3.284-2.387l-12.963-.005a3.46,3.46,0,0,0,0,6.921h10.46q9.3,28.471,18.595,56.944a12.608,12.608,0,1,0,13.808,6.662h24.028a12.613,12.613,0,1,0,20.171-3.21,12.734,12.734,0,0,0-8.928-3.711H74.3l-1.994-6.106,43.9-.005a3.457,3.457,0,0,0,3.284-2.387l12.19-37.333a3.463,3.463,0,0,0-3.213-4.746H105.719a3.461,3.461,0,0,0,0,6.922h17.988L119.948,70.4Zm53.882,6.918H66.064l3.986,12.2H113.7ZM91.876,51.972a3.46,3.46,0,1,0,3.461,3.461A3.46,3.46,0,0,0,91.876,51.972Zm24.568,57.491a5.671,5.671,0,1,1-.634.008A4.137,4.137,0,0,1,116.445,109.463ZM73.7,111.139a5.689,5.689,0,1,1-4.023-1.667A5.673,5.673,0,0,1,73.7,111.139Zm78-20.088,6.871-5.766a70.6,70.6,0,0,1-139.119,7.44,3.457,3.457,0,0,0-6.759,1.459A77.524,77.524,0,0,0,165.4,86.412l5.282,6.294a3.455,3.455,0,0,0,5.3-4.434l-10.758-12.82A3.459,3.459,0,0,0,160.077,75L147.261,85.751a3.455,3.455,0,1,0,4.434,5.3Zm0,0" transform="translate(0)"/>
</svg>
