<svg id="statistics" xmlns="http://www.w3.org/2000/svg" width="203.445" height="203.445" viewBox="0 0 203.445 203.445">
  <defs>
    <style>
      .cls-1 {
        fill: #034b75;
      }
    </style>
  </defs>
  <path id="Tracé_29" data-name="Tracé 29" class="cls-1" d="M48.881,95.365a17.814,17.814,0,0,0,12.4-5.017L78.824,99.12a17.879,17.879,0,1,0,33.873-5.5l23.844-23.844A17.88,17.88,0,0,0,161.309,48.3L182.024,32.76a17.857,17.857,0,1,0-7.159-9.532L154.15,38.764a17.874,17.874,0,0,0-26.038,22.584L104.268,85.192a17.843,17.843,0,0,0-20.105,3.269L66.621,79.69a17.878,17.878,0,1,0-17.74,15.675ZM191.928,11.921a5.96,5.96,0,1,1-5.96,5.96A5.968,5.968,0,0,1,191.928,11.921ZM144.246,47.682a5.96,5.96,0,1,1-5.96,5.96A5.968,5.968,0,0,1,144.246,47.682ZM96.563,95.365a5.96,5.96,0,1,1-5.96,5.96A5.968,5.968,0,0,1,96.563,95.365ZM48.881,71.524a5.96,5.96,0,1,1-5.96,5.96A5.968,5.968,0,0,1,48.881,71.524Zm0,0" transform="translate(-18.682)"/>
  <path id="Tracé_30" data-name="Tracé 30" class="cls-1" d="M197.485,281.922h-6.358V155.96a5.96,5.96,0,0,0-5.96-5.96H161.326a5.96,5.96,0,0,0-5.96,5.96V281.922H143.445v-90.2a5.96,5.96,0,0,0-5.96-5.96H113.643a5.96,5.96,0,0,0-5.96,5.96v90.2H95.762V239.4a5.96,5.96,0,0,0-5.96-5.96H65.961A5.96,5.96,0,0,0,60,239.4v42.517H48.08V215.563a5.96,5.96,0,0,0-5.96-5.96H18.278a5.96,5.96,0,0,0-5.96,5.96v66.358H5.96a5.96,5.96,0,1,0,0,11.921H197.485a5.96,5.96,0,1,0,0-11.921Zm-30.2-120h11.921v120H167.286ZM119.6,197.683h11.921v84.239H119.6ZM71.921,245.365H83.842v36.557H71.921ZM24.239,221.524H36.159v60.4H24.239Zm0,0" transform="translate(0 -90.397)"/>
</svg>
