<?xml version="1.0" encoding="iso-8859-1"?>
<!-- Generator: Adobe Illustrator 16.0.0, SVG Export Plug-In . SVG Version: 6.00 Build 0)  -->
<!DOCTYPE svg PUBLIC "-//W3C//DTD SVG 1.1//EN" "http://www.w3.org/Graphics/SVG/1.1/DTD/svg11.dtd">
<svg version="1.1" id="Capa_1" xmlns="http://www.w3.org/2000/svg" xmlns:xlink="http://www.w3.org/1999/xlink" x="0px" y="0px"
	 width="176.791" height="155.031" viewBox="0 0 425.799 425.799" style="enable-background:new 0 0 425.799 425.799;"
	 xml:space="preserve">
<g>
	<g>
	<style>
      .cls-1 {
        fill: #ff5ea0;
        fill-rule: evenodd;
      }
    </style>
		<path class="cls-1"
 d="M212.899,39.297C95.319,39.297,0,107,0,190.509c0,43.75,26.316,83.031,68.123,110.638l-0.717,7.42l-7.603,55.568
			c-2.83,20.703,9.19,28.42,26.842,17.242l31.967-20.244l39.082-24.738c17.633,3.355,36.079,5.316,55.204,5.316
			c117.581,0,212.899-67.703,212.899-151.212C425.799,106.99,330.48,39.297,212.899,39.297z M214.037,261.147l-1.989,1.617
			c-74.54-30.094-103.265-99.728-70.438-129.812c32.828-30.083,70.447,10.49,70.447,10.49h0.277c0,0,37.61-40.583,70.438-10.49
			C315.602,163.045,288.578,231.053,214.037,261.147z"/>
	</g>
</g>
<g>
</g>
<g>
</g>
<g>
</g>
<g>
</g>
<g>
</g>
<g>
</g>
<g>
</g>
<g>
</g>
<g>
</g>
<g>
</g>
<g>
</g>
<g>
</g>
<g>
</g>
<g>
</g>
<g>
</g>
</svg>
