<svg xmlns="http://www.w3.org/2000/svg" width="155.613" height="129.401" viewBox="0 0 155.613 129.401">
  <defs>
    <style>
      .cls-1 {
        fill: #31da80;
      }
    </style>
  </defs>
  <g id="gift-card" transform="translate(0.001 -43.12)">
    <g id="Groupe_42" data-name="Groupe 42" transform="translate(-0.001 43.12)">
      <path id="Tracé_34" data-name="Tracé 34" class="cls-1" d="M154.824,93.457a9.826,9.826,0,0,0-5.4-5.312l-2.735-1.108V72.585a9.9,9.9,0,0,0-9.892-9.892H86.6L57.807,51.029a2.284,2.284,0,1,0-1.715,4.233l18.342,7.431H26.69l4.731-11.68a5.331,5.331,0,0,1,6.934-2.936l9.272,3.756A2.284,2.284,0,1,0,49.342,47.6L40.07,43.844A9.9,9.9,0,0,0,27.187,49.3L21.761,62.693H18.81a9.9,9.9,0,0,0-9.892,9.892V94.4L.729,114.614A9.892,9.892,0,0,0,6.183,127.5L8.918,128.6v14.452a9.9,9.9,0,0,0,9.892,9.892h9.746a2.284,2.284,0,1,0,0-4.567H18.81a5.33,5.33,0,0,1-5.324-5.324V102.239H43.5c-5.273,4.165-12.307,11.371-15.273,21.754a2.284,2.284,0,0,0,4.392,1.255c3.081-10.784,11.409-17.889,16.1-21.167v44.3H37.692a2.284,2.284,0,0,0,0,4.567H69.013l22.693,9.193a2.284,2.284,0,1,0,1.715-4.233l-12.243-4.96h47.744l-4.731,11.68a5.331,5.331,0,0,1-6.934,2.936l-15.349-6.218a2.284,2.284,0,0,0-1.715,4.233l15.349,6.218a9.891,9.891,0,0,0,12.882-5.454l5.426-13.395H136.8a9.9,9.9,0,0,0,9.892-9.892V121.244l8.189-20.216a9.83,9.83,0,0,0-.059-7.571ZM7.9,123.263a5.324,5.324,0,0,1-2.936-6.934l3.956-9.766v17.113ZM28.4,89.18c-.391-.921-.673-2.392,1.39-4.532a4.041,4.041,0,0,1,3.542-1.405c2.762.416,6.407,3.608,10.266,8.987,1.341,1.869,2.508,3.725,3.409,5.244-8.753-.856-16.938-4.365-18.608-8.295Zm20.32,2.385c-3.626-5.446-9.066-11.987-14.7-12.839A8.414,8.414,0,0,0,26.5,81.477c-1.643,1.7-4.127,5.2-2.306,9.489,1.132,2.665,3.69,4.924,7.017,6.7H13.486V72.585a5.33,5.33,0,0,1,5.324-5.324H48.722v24.3Zm93.4,51.492a5.33,5.33,0,0,1-5.324,5.324H53.289v-44.3c4.694,3.279,13.023,10.383,16.1,21.167a2.284,2.284,0,0,0,4.392-1.255c-2.966-10.383-10-17.588-15.273-21.754h83.614ZM55,97.474c.892-1.5,2.047-3.341,3.377-5.2,3.871-5.407,7.528-8.615,10.3-9.033a4.042,4.042,0,0,1,3.544,1.405c2.063,2.14,1.781,3.612,1.39,4.532-1.67,3.929-9.856,7.439-18.609,8.294Zm87.126.2H70.8c3.327-1.781,5.885-4.04,7.017-6.7,1.821-4.285-.663-7.785-2.306-9.489a8.416,8.416,0,0,0-7.514-2.751c-5.638.852-11.079,7.393-14.7,12.839v-24.3H136.8a5.33,5.33,0,0,1,5.324,5.324V97.671Zm8.524,1.642-3.956,9.766V91.966l1.021.413a5.325,5.325,0,0,1,2.935,6.934Z" transform="translate(0.001 -43.12)"/>
      <path id="Tracé_35" data-name="Tracé 35" class="cls-1" d="M370.293,285.081v2.191a2.284,2.284,0,1,0,4.568,0v-2.128a7.535,7.535,0,0,0,3.657-1.859,7.883,7.883,0,0,0,2.38-5.663,7.1,7.1,0,0,0-1.581-4.6c-1.387-1.677-3.565-2.69-6.473-3.011-2.711-.3-3.116-1.7-3.116-2.5a2.682,2.682,0,0,1,2.849-2.849,3,3,0,0,1,2.689,1.352,2.289,2.289,0,0,0,2.116,1.419,2.315,2.315,0,0,0,2.055-3.3,7.332,7.332,0,0,0-4.576-3.725v-2.234a2.284,2.284,0,1,0-4.568,0V260.4a6.735,6.735,0,0,0-3.762,2.7,8.15,8.15,0,0,0-1.371,4.41c0,2.883,1.881,6.458,7.183,7.043,3.987.44,3.987,2.348,3.987,3.067a3.307,3.307,0,0,1-.943,2.337,3.958,3.958,0,0,1-3.047.813c-2.882-.176-3.535-1.971-3.6-2.175h0a2.287,2.287,0,1,0-4.361,1.35,7.886,7.886,0,0,0,5.916,5.134Z" transform="translate(-253.533 -191.225)"/>
    </g>
  </g>
</svg>
